<?xml version="1.0" encoding="UTF-8"?>
<svg version="1.1" xmlns="http://www.w3.org/2000/svg" width="180" height="180">
<path d="M0 0 C59.4 0 118.8 0 180 0 C180 59.4 180 118.8 180 180 C120.6 180 61.2 180 0 180 C0 120.6 0 61.2 0 0 Z " fill="#ED1A29" transform="translate(0,0)"/>
<path d="M0 0 C1.2148407 -0.00430527 1.2148407 -0.00430527 2.45422363 -0.00869751 C4.16561584 -0.01073792 5.87703138 -0.00520959 7.58837891 0.00732422 C10.2091889 0.02337893 12.82845677 0.00747556 15.44921875 -0.01171875 C17.11198257 -0.00973631 18.77474544 -0.00589263 20.4375 0 C21.22193481 -0.00607269 22.00636963 -0.01214539 22.8145752 -0.0184021 C28.19277523 0.05118576 28.19277523 0.05118576 30.70898438 1.71240234 C32.47193029 4.65604464 32.12054223 7.0693019 31.71875 10.3984375 C29.19156622 14.67521004 26.30064847 16.58476935 21.71875 18.3984375 C20.39875 18.3984375 19.07875 18.3984375 17.71875 18.3984375 C17.71875 15.4284375 17.71875 12.4584375 17.71875 9.3984375 C12.76875 9.3984375 7.81875 9.3984375 2.71875 9.3984375 C2.71875 18.6384375 2.71875 27.8784375 2.71875 37.3984375 C7.66875 37.3984375 12.61875 37.3984375 17.71875 37.3984375 C17.71875 34.4284375 17.71875 31.4584375 17.71875 28.3984375 C18.915 27.9859375 20.11125 27.5734375 21.34375 27.1484375 C25.22966743 25.80846597 28.34849551 23.7354048 31.71875 21.3984375 C31.80576039 25.00245231 31.85914388 28.60619762 31.90625 32.2109375 C31.93138672 33.23509766 31.95652344 34.25925781 31.98242188 35.31445312 C31.99208984 36.29736328 32.00175781 37.28027344 32.01171875 38.29296875 C32.0274292 39.19893799 32.04313965 40.10490723 32.05932617 41.03833008 C31.71875 43.3984375 31.71875 43.3984375 30.71801758 45.19262695 C27.49858041 47.13435368 24.08881388 46.8251416 20.4375 46.796875 C19.2226593 46.80118027 19.2226593 46.80118027 17.98327637 46.80557251 C16.27188416 46.80761292 14.56046862 46.80208459 12.84912109 46.78955078 C10.2283111 46.77349607 7.60904323 46.78939944 4.98828125 46.80859375 C3.32551743 46.80661131 1.66275456 46.80276763 0 46.796875 C-0.78443481 46.80294769 -1.56886963 46.80902039 -2.3770752 46.8152771 C-7.81814231 46.74487582 -7.81814231 46.74487582 -9.98757935 45.12197876 C-12.29539778 42.04730108 -11.70612215 38.16126269 -11.6796875 34.4609375 C-11.68255768 33.58445557 -11.68542786 32.70797363 -11.68838501 31.80493164 C-11.69042598 29.95230462 -11.68489378 28.09965608 -11.67236328 26.24707031 C-11.65630984 23.40901571 -11.67221055 20.57238523 -11.69140625 17.734375 C-11.68942382 15.93489269 -11.68558016 14.13541126 -11.6796875 12.3359375 C-11.68576019 11.48588135 -11.69183289 10.6358252 -11.6980896 9.76000977 C-11.62754494 3.85980193 -11.62754494 3.85980193 -9.98757935 1.67489624 C-7.05319965 -0.52023368 -3.52410047 -0.02728178 0 0 Z " fill="#FEF8F8" transform="translate(125.28125,65.6015625)"/>
<path d="M0 0 C0.77261673 0.00424484 1.54523346 0.00848969 2.34126282 0.01286316 C4.80729117 0.02964692 7.27250021 0.06729728 9.73828125 0.10546875 C11.41079548 0.12051604 13.08332253 0.13420437 14.75585938 0.14648438 C18.85448203 0.17954929 22.95249276 0.23132847 27.05078125 0.29296875 C26.53099383 3.5486392 26.27123184 5.03729824 24.0703125 7.58984375 C19.876451 9.95533355 16.45384134 9.73500706 11.73828125 9.54296875 C7.43796875 9.41921875 7.43796875 9.41921875 3.05078125 9.29296875 C3.05078125 18.53296875 3.05078125 27.77296875 3.05078125 37.29296875 C8.00078125 37.29296875 12.95078125 37.29296875 18.05078125 37.29296875 C18.05078125 33.99296875 18.05078125 30.69296875 18.05078125 27.29296875 C16.73078125 26.96296875 15.41078125 26.63296875 14.05078125 26.29296875 C11.90880631 23.38600276 11.05078125 21.93775787 11.05078125 18.29296875 C13.80137506 18.21189229 16.54957146 18.15244062 19.30078125 18.10546875 C20.07808594 18.08033203 20.85539062 18.05519531 21.65625 18.02929688 C22.41035156 18.01962891 23.16445313 18.00996094 23.94140625 18 C24.9782959 17.97643433 24.9782959 17.97643433 26.03613281 17.95239258 C28.78823427 18.41763513 30.09317776 19.31327589 32.05078125 21.29296875 C32.55249023 23.60546875 32.55249023 23.60546875 32.546875 26.29296875 C32.54751953 27.26234375 32.54816406 28.23171875 32.54882812 29.23046875 C32.52884766 30.24109375 32.50886719 31.25171875 32.48828125 32.29296875 C32.49537109 33.30359375 32.50246094 34.31421875 32.50976562 35.35546875 C32.44722471 42.5909714 32.44722471 42.5909714 31.04125977 45.08056641 C27.8308072 47.0360561 24.41881341 46.71965712 20.76953125 46.69140625 C19.55469055 46.69571152 19.55469055 46.69571152 18.31530762 46.70010376 C16.60391541 46.70214417 14.89249987 46.69661584 13.18115234 46.68408203 C10.56034235 46.66802732 7.94107448 46.68393069 5.3203125 46.703125 C3.65754868 46.70114256 1.99478581 46.69729888 0.33203125 46.69140625 C-0.45240356 46.69747894 -1.23683838 46.70355164 -2.04504395 46.70980835 C-7.48611106 46.63940707 -7.48611106 46.63940707 -9.6555481 45.01651001 C-11.96336653 41.94183233 -11.3740909 38.05579394 -11.34765625 34.35546875 C-11.35052643 33.47898682 -11.35339661 32.60250488 -11.35635376 31.69946289 C-11.35839473 29.84683587 -11.35286253 27.99418733 -11.34033203 26.14160156 C-11.32427859 23.30354696 -11.3401793 20.46691648 -11.359375 17.62890625 C-11.35739257 15.82942394 -11.35354891 14.02994251 -11.34765625 12.23046875 C-11.35372894 11.3804126 -11.35980164 10.53035645 -11.36605835 9.65454102 C-11.29548672 3.75207742 -11.29548672 3.75207742 -9.64704895 1.56645203 C-6.78433644 -0.58076888 -3.43355537 -0.07087694 0 0 Z " fill="#FEF8F8" transform="translate(33.94921875,65.70703125)"/>
<path d="M0 0 C5.21440513 -0.07412765 10.42850393 -0.12859104 15.64331055 -0.16479492 C17.41745343 -0.17988641 19.19155898 -0.20036191 20.96557617 -0.22631836 C23.51490487 -0.26268641 26.06374059 -0.27972238 28.61328125 -0.29296875 C29.40712723 -0.30845261 30.20097321 -0.32393646 31.01887512 -0.33988953 C36.39533128 -0.34153463 36.39533128 -0.34153463 39.02416992 1.14331055 C40 3 40 3 40 9 C35.71 9 31.42 9 27 9 C27 21.87 27 34.74 27 48 C22 48 22 48 18.8125 45.8125 C15.23906864 42.23906864 14.1272017 39.80941002 13.77294922 34.77026367 C13.78342285 33.58150635 13.79389648 32.39274902 13.8046875 31.16796875 C13.81113281 29.87568359 13.81757812 28.58339844 13.82421875 27.25195312 C13.84092673 25.8971327 13.85785658 24.54231499 13.875 23.1875 C13.88503997 21.81315749 13.89416404 20.43880797 13.90234375 19.06445312 C13.92588758 15.70945683 13.95877433 12.35481801 14 9 C13.07876343 9.03915527 13.07876343 9.03915527 12.13891602 9.07910156 C10.92739868 9.10955566 10.92739868 9.10955566 9.69140625 9.140625 C8.89162354 9.16672852 8.09184082 9.19283203 7.26782227 9.21972656 C5 9 5 9 1.9375 6.75 C0 4 0 4 0 0 Z " fill="#FEF9F9" transform="translate(68,66)"/>
</svg>
